<svg xmlns="http://www.w3.org/2000/svg" xmlns:xlink="http://www.w3.org/1999/xlink" width="500" zoomAndPan="magnify" viewBox="0 0 375 374.999991" height="500" preserveAspectRatio="xMidYMid meet" version="1.0"><path fill="#ed1e24" d="M 226.453125 244.316406 L 374.996094 357.964844 L 238.492188 227.144531 L 303.59375 257.039062 L 250.128906 203.574219 L 290.40625 188.652344 L 255.582031 178.328125 L 365.210938 96.574219 L 221.105469 143.851562 L 260.589844 72.828125 L 203.960938 112.300781 L 204.65625 74.125 L 189.515625 99.359375 L 125.160156 18.269531 L 142.21875 130.867188 L 5.148438 17.035156 L 118.832031 146.019531 L 110.722656 141.769531 L 67.371094 119.03125 C 67.371094 119.03125 89.300781 147.917969 102.132812 163.90625 L 0.00390625 156.269531 L 105.570312 199.691406 L 41.082031 232.007812 L 106.066406 215.796875 L 13.511719 318.621094 L 125.160156 224.945312 L 102.199219 264.460938 L 128.464844 238.195312 L 140.3125 348.433594 L 179.257812 254.652344 L 226.730469 336.464844 L 226.453125 244.316406 " fill-opacity="1" fill-rule="nonzero"/><path fill="#f2541b" d="M 211.707031 226.464844 L 319.535156 308.960938 L 220.445312 213.996094 L 267.699219 235.699219 L 228.894531 196.886719 L 258.128906 186.054688 L 232.851562 178.5625 L 312.425781 119.21875 L 207.820312 153.535156 L 236.484375 101.980469 L 195.375 130.632812 L 195.878906 102.921875 L 184.890625 121.238281 L 138.175781 62.378906 L 150.558594 144.113281 L 51.058594 61.480469 L 133.582031 155.113281 L 127.695312 152.023438 L 96.226562 135.519531 C 96.226562 135.519531 112.144531 156.488281 121.460938 168.09375 L 47.324219 162.550781 L 123.957031 194.070312 L 77.140625 217.527344 L 124.316406 205.761719 L 57.128906 280.402344 L 138.175781 212.402344 L 121.507812 241.085938 L 140.574219 222.019531 L 149.175781 302.042969 L 177.445312 233.964844 L 211.90625 293.355469 L 211.707031 226.464844 " fill-opacity="1" fill-rule="nonzero"/><path fill="#efee0e" d="M 201.261719 219.300781 L 280.160156 279.664062 L 207.65625 210.183594 L 242.234375 226.058594 L 213.835938 197.660156 L 235.230469 189.734375 L 216.734375 184.253906 L 274.960938 140.832031 L 198.421875 165.941406 L 219.394531 128.21875 L 189.316406 149.183594 L 189.683594 128.90625 L 181.644531 142.308594 L 147.460938 99.242188 L 156.519531 159.046875 L 83.71875 98.582031 L 144.097656 167.09375 L 139.792969 164.835938 L 116.769531 152.757812 C 116.769531 152.757812 128.414062 168.101562 135.230469 176.59375 L 80.984375 172.535156 L 137.058594 195.597656 L 102.804688 212.765625 L 137.320312 204.152344 L 88.160156 258.769531 L 147.460938 209.011719 L 135.265625 230 L 149.214844 216.050781 L 155.507812 274.601562 L 176.195312 224.792969 L 201.410156 268.242188 L 201.261719 219.300781 " fill-opacity="1" fill-rule="nonzero"/><path fill="#ffffff" d="M 191.257812 207.152344 L 242.859375 249.820312 L 195.796875 201.171875 L 218.679688 212.746094 L 200.277344 192.898438 L 214.886719 188.105469 L 202.570312 183.9375 L 242.894531 156.179688 L 190.703125 171.140625 L 205.789062 146.265625 L 184.996094 159.621094 L 185.761719 145.972656 L 180.003906 154.792969 L 158.078125 124.917969 L 162.65625 165.429688 L 115.160156 122.847656 L 154.085938 170.53125 L 151.242188 168.898438 L 136.042969 160.179688 C 136.042969 160.179688 143.496094 170.8125 147.871094 176.707031 L 111.4375 172.589844 L 148.617188 189.550781 L 125.109375 200.242188 L 148.574219 195.320312 L 114.074219 230.851562 L 155.28125 198.851562 L 146.53125 212.679688 L 156.285156 203.636719 L 159.03125 243.230469 L 174.234375 210.210938 L 190.113281 240.121094 L 191.257812 207.152344 " fill-opacity="1" fill-rule="nonzero"/></svg>