<svg xmlns="http://www.w3.org/2000/svg" xmlns:xlink="http://www.w3.org/1999/xlink" width="500" zoomAndPan="magnify" viewBox="0 0 375 374.999991" height="500" preserveAspectRatio="xMidYMid meet" version="1.0"><rect x="-37.5" width="450" fill="#ffffff" y="-37.499999" height="449.999989" fill-opacity="1"/><rect x="-37.5" width="450" fill="#9eff1f" y="-37.499999" height="449.999989" fill-opacity="1"/><path fill="#000000" d="M 249.074219 250.847656 C 254.398438 263.152344 252.945312 275.980469 253.027344 288.648438 C 253.105469 301.28125 253.105469 313.914062 253.019531 326.546875 C 252.945312 335.941406 245.375 342.207031 236.644531 340.292969 C 230.558594 338.957031 226.28125 333.660156 226.265625 327.121094 C 226.230469 309.269531 226.164062 291.414062 226.347656 273.5625 C 226.4375 264.667969 223.816406 256.945312 217.800781 250.410156 C 213.925781 246.199219 212.515625 241.398438 214.589844 235.992188 C 216.601562 230.746094 220.707031 228.316406 226.234375 227.289062 C 236.363281 225.40625 246.644531 223.785156 256.414062 220.652344 C 278.980469 213.421875 292.195312 197.320312 297.019531 174.367188 C 299.972656 160.296875 301.351562 146.082031 297.738281 131.867188 C 295.410156 122.703125 291.066406 114.527344 284.601562 107.632812 C 279.878906 102.589844 278.75 97.246094 281.085938 90.703125 C 284.570312 80.957031 284.929688 70.949219 282.363281 60.25 C 278.847656 61.445312 275.355469 62.207031 272.273438 63.765625 C 264.46875 67.71875 256.664062 71.730469 249.21875 76.300781 C 244.222656 79.363281 239.460938 80.277344 233.785156 78.8125 C 206.445312 71.742188 179.082031 71.753906 151.703125 78.847656 C 146.152344 80.285156 141.363281 79.578125 136.578125 76.339844 C 127.226562 70.007812 117.386719 64.535156 106.460938 61.292969 C 105.488281 61.003906 104.480469 60.8125 103.257812 60.519531 C 101.226562 67.988281 101.0625 75.308594 102.445312 82.644531 C 103.058594 85.90625 104.042969 89.113281 105.050781 92.285156 C 106.671875 97.394531 105.992188 102.078125 102.351562 106.003906 C 90.433594 118.871094 85.144531 134.054688 85.835938 151.488281 C 86.316406 163.546875 87.78125 175.402344 92.28125 186.707031 C 99.574219 205.023438 113.472656 216.136719 131.871094 221.726562 C 140.511719 224.351562 149.503906 225.941406 158.429688 227.46875 C 167.488281 229.023438 172.847656 234.585938 171.652344 242.789062 C 171.269531 245.40625 169.914062 248.246094 168.15625 250.234375 C 161.800781 257.433594 159.085938 265.625 159.234375 275.191406 C 159.496094 292.414062 159.363281 309.644531 159.296875 326.867188 C 159.265625 334.777344 153.597656 340.605469 146.121094 340.707031 C 138.59375 340.808594 132.777344 334.839844 132.699219 326.792969 C 132.628906 319.292969 132.683594 311.789062 132.683594 304.683594 C 125.851562 304.683594 119.289062 305.035156 112.78125 304.613281 C 97.253906 303.605469 84.324219 296.839844 73.78125 285.609375 C 69.003906 280.519531 64.71875 274.960938 60.261719 269.574219 C 56.578125 265.121094 52.753906 261.175781 46.933594 259.164062 C 40.480469 256.933594 37.527344 249.269531 39.753906 242.792969 C 42.039062 236.144531 48.949219 232.484375 55.800781 234.242188 C 64.652344 236.511719 71.558594 241.761719 77.40625 248.507812 C 81.644531 253.398438 85.710938 258.441406 89.710938 263.527344 C 100.914062 277.765625 115.535156 280.722656 132.300781 276.714844 C 132.617188 272.257812 132.65625 267.871094 133.304688 263.570312 C 133.933594 259.375 135.183594 255.269531 136.183594 251.023438 C 131.414062 249.566406 126.402344 248.222656 121.511719 246.519531 C 85.765625 234.089844 66.355469 208.332031 60.832031 171.539062 C 58.65625 157.035156 57.914062 142.46875 61.265625 127.96875 C 63.933594 116.429688 68.707031 105.863281 75.757812 96.355469 C 76.972656 94.714844 77.40625 93.265625 76.941406 91.222656 C 73.175781 74.664062 74.542969 58.484375 80.867188 42.730469 C 83.496094 36.1875 87.839844 33.558594 94.835938 33.230469 C 111.355469 32.460938 125.777344 38.796875 139.351562 46.925781 C 145.855469 50.820312 151.605469 51.523438 158.863281 50.085938 C 183.648438 45.164062 208.503906 45.878906 233.195312 51.191406 C 236.042969 51.804688 238.230469 51.523438 240.75 49.980469 C 253 42.488281 265.753906 36.027344 280.125 33.75 C 284.511719 33.058594 289.109375 33.054688 293.546875 33.457031 C 298.839844 33.933594 302.496094 37.140625 304.511719 42.105469 C 311.019531 58.140625 312.488281 74.585938 308.761719 91.515625 C 308.472656 92.820312 308.796875 94.679688 309.574219 95.746094 C 322.640625 113.636719 327.734375 133.707031 326.394531 155.632812 C 325.507812 170.191406 323.261719 184.457031 317.550781 197.992188 C 306.753906 223.585938 287.175781 239.234375 261.121094 247.457031 C 257.265625 248.671875 253.335938 249.65625 249.074219 250.847656 Z M 249.074219 250.847656 " fill-opacity="1" fill-rule="nonzero"/></svg>