<svg width="64" height="64" viewBox="0 0 64 64" xmlns="http://www.w3.org/2000/svg">
  <defs>
    <linearGradient id="cannonGradient" x1="0%" y1="0%" x2="100%" y2="100%">
      <stop offset="0%" style="stop-color:#4f46e5;stop-opacity:1" />
      <stop offset="100%" style="stop-color:#7c3aed;stop-opacity:1" />
    </linearGradient>
    <radialGradient id="explosionGradient" cx="50%" cy="50%" r="50%">
      <stop offset="0%" style="stop-color:#ffd700;stop-opacity:1" />
      <stop offset="50%" style="stop-color:#ff6b35;stop-opacity:0.8" />
      <stop offset="100%" style="stop-color:#ff1744;stop-opacity:0" />
    </radialGradient>
  </defs>
  
  <!-- Background circle -->
  <circle cx="32" cy="32" r="32" fill="#1a1a2e"/>
  
  <!-- Cannon base -->
  <circle cx="20" cy="45" r="12" fill="url(#cannonGradient)"/>
  
  <!-- Cannon barrel -->
  <rect x="15" y="30" width="35" height="8" rx="4" fill="url(#cannonGradient)"/>
  
  <!-- Cannon details -->
  <circle cx="20" cy="45" r="8" fill="none" stroke="#6366f1" stroke-width="2"/>
  <rect x="18" y="43" width="4" height="4" fill="#e0e7ff"/>
  
  <!-- Explosion effect -->
  <circle cx="52" cy="20" r="8" fill="url(#explosionGradient)" opacity="0.8">
    <animate attributeName="r" values="0;12;8" dur="2s" repeatCount="indefinite"/>
    <animate attributeName="opacity" values="0;0.8;0" dur="2s" repeatCount="indefinite"/>
  </circle>
  
  <!-- Projectile -->
  <circle cx="40" cy="32" r="2" fill="#ff4444">
    <animateTransform 
      attributeName="transform" 
      type="translate" 
      values="0,0; 20,-15" 
      dur="2s" 
      repeatCount="indefinite"/>
  </circle>
  
  <!-- Contribution squares -->
  <g transform="translate(35, 8)">
    <rect x="0" y="0" width="3" height="3" fill="#26a641" rx="0.5"/>
    <rect x="4" y="0" width="3" height="3" fill="#006d32" rx="0.5"/>
    <rect x="8" y="0" width="3" height="3" fill="#39d353" rx="0.5"/>
    <rect x="12" y="0" width="3" height="3" fill="#0e4429" rx="0.5"/>
    
    <rect x="0" y="4" width="3" height="3" fill="#006d32" rx="0.5"/>
    <rect x="4" y="4" width="3" height="3" fill="#161b22" rx="0.5"/>
    <rect x="8" y="4" width="3" height="3" fill="#26a641" rx="0.5"/>
    <rect x="12" y="4" width="3" height="3" fill="#39d353" rx="0.5"/>
    
    <rect x="0" y="8" width="3" height="3" fill="#39d353" rx="0.5"/>
    <rect x="4" y="8" width="3" height="3" fill="#26a641" rx="0.5"/>
    <rect x="8" y="8" width="3" height="3" fill="#161b22" rx="0.5"/>
    <rect x="12" y="8" width="3" height="3" fill="#0e4429" rx="0.5"/>
  </g>
</svg>